<?xml version="1.0" standalone="no"?>
<!DOCTYPE svg PUBLIC "-//W3C//DTD SVG 20010904//EN"
 "http://www.w3.org/TR/2001/REC-SVG-20010904/DTD/svg10.dtd">
<svg version="1.0" xmlns="http://www.w3.org/2000/svg"
 width="172.000000pt" height="172.000000pt" viewBox="0 0 172.000000 172.000000"
 preserveAspectRatio="xMidYMid meet">
<metadata>
Created by potrace 1.14, written by Peter Selinger 2001-2017
</metadata>
<g transform="translate(0.000000,172.000000) scale(0.100000,-0.100000)"
fill="#000000" stroke="none">
<path d="M0 860 l0 -860 860 0 860 0 0 860 0 860 -860 0 -860 0 0 -860z m1505
0 l0 -645 -645 0 -645 0 -3 635 c-1 349 0 641 3 648 3 10 138 12 647 10 l643
-3 0 -645z"/>
<path d="M360 860 l0 -500 500 0 500 0 0 500 0 500 -500 0 -500 0 0 -500z
m780 280 c0 -6 -45 -100 -100 -210 -55 -110 -100 -204 -100 -209 0 -5 45 -40
101 -78 l101 -68 -242 -3 c-134 -1 -245 -1 -247 2 -2 2 44 99 102 216 58 117
105 213 103 215 -2 1 -46 30 -98 65 -52 34 -99 67 -104 71 -6 5 97 9 237 9
160 0 247 -4 247 -10z"/>
</g>
</svg>
